<svg xmlns="http://www.w3.org/2000/svg" viewBox="0 0 1512 436.85">
  <rect width="1512" height="436.84" style="fill:none"/>
  <path d="M1369.7,174.66l18.45-48.81,3.21,2.78c11.33,9.23,26.7,17.09,41.19,17.41,13,.29,19.31-3.16,17.59-14.13-1.28-8.19-10.54-9.64-16.31-10.78l-12.69-2.53c-24.68-4.61-45.44-19.84-45.44-48.68,0-43.61,37.61-68.07,75.4-68.07A98.39,98.39,0,0,1,1506.24,18l-16,43.25c-8.78-6.33-22.06-15.23-38.92-15.84-5.53-.21-18.19,2.69-14.13,15.57,1.75,5.46,9.61,7.76,14.42,8.94l14.31,3.45C1492.63,79.6,1512,94.82,1512,126c0,43.83-37.82,65.53-75.39,65.53-21.92,0-47.31-6.23-66.91-16.84"/>
  <rect x="1291.72" y="4.85" width="64.38" height="183.9"/>
  <polygon points="1219.15 4.85 1285.1 4.85 1217.76 188.75 1164.24 188.75 1097.11 4.85 1162.84 4.85 1190.99 115.81 1219.15 4.85"/>
  <path d="M941,188.75h66.9l5.08-23.09h47.74l6.33,23.09h66.91L1071.27,4.85H1001.1Zm96-130.82h0c1.18,7.82,12.71,64.11,12.71,64.11H1024.3Z"/>
  <path d="M840.4,135.93h4.31c21.22,0,37-12.72,37-36.71,0-25.85-13.95-40.26-37.25-40.26h-4ZM775.61,4.85h65.93c58.82,0,103.79,27,103.79,94.6,0,54.46-36.66,89.3-88.11,89.3l-81.61-.1Z"/>
  <path d="M737.11,10.62l3.43,30.17c.81,7.16,4.89,24.35-.16,22.05-3.16-1.42-5.76-9.22-8.35-16.12-1.31-3.52-7.59-20.13-9.22-21.36-7.93-5.92-27.69-12.6-41-12.67-40.54-.15-67.37,29.77-67.37,82.84,0,38.07,18.23,83.73,64.59,83.73,16.61,0,48.42-5.22,57.09-28.86,3.9-10.71,7.49-20.21,10.08-17.32,1.93,2.1-.57,10.67-1.73,15.28-5.45,21.91-5.75,28.55-7.49,29.4-20.95,10.52-47.81,14-71.32,14-74.76,0-100.57-43.62-100.57-87.22C565,28.86,611.51-3,683.58.24a169.72,169.72,0,0,1,53.53,10.38" />
  <path d="M516.37,14l-12-4.18c-4-3.62.87-4.63.87-4.63s17.31,3.21,60.41-.44c0,0,3.74.75,1.15,3.78l-14.13,6c-9.23,4.05-9.23,1.73-9.23,11.83l-.07,93.72c0,73.3-74.56,71.66-89.08,71.66-6.91,0-75.29,0-75.29-58.86V33.69c0-17.3,1.84-16.84-3.92-18.87L357.82,8.33s-2.92-4.15,2.3-3.89c14.11.72,34.61,3.76,82.73.28,0,0,4.18,1,1.44,4.05l-14.38,4c-11,4.91-9.52,1.16-9.81,12.4l.34,97.82c0,24,12.33,53.68,51.18,53.68,52.83,0,53.32-45.7,53.32-55.86L525,24c.56-9.13-.59-6.53-8.67-10" />
  <rect x="379.05" y="229.5" width="1132.95" height="7.66"/>
  <path d="M419,403h48v33.89H379V282.92h40Z"/>
  <path d="M551.25,436.84h-40V282.92h40Z"/>
  <path d="M601.88,436.84V282.92H659c27.36,0,45.73,10.61,45.73,40,0,13.88-4.49,25.11-16.94,31.44v.41c22,2.85,31.44,17.76,31.44,39.19,0,32.26-27.56,42.87-55.73,42.87Zm40-93.5h4.49c10.61,0,21.64-1.83,21.64-14.9,0-14.09-12.46-14.9-23.28-14.9H641.9Zm0,62.88H647c11.84,0,31.85.61,31.85-16.33,0-18.58-19.81-16.74-32.87-16.74H641.9Z" />
  <path d="M886.67,436.84H836.86l-37.77-59.2h-.41v59.2h-40V282.92h59.82c30.41,0,53.48,14.49,53.48,47.36,0,21.23-11.84,39.6-33.68,43.48Zm-88-84.92h3.88c13.07,0,27.77-2.45,27.77-19.19s-14.7-19.19-27.77-19.19h-3.88Z"/>
  <path d="M951.59,410.1,941,436.84H898.52l59.2-153.92h43.69l58,153.92h-42.66l-10-26.74Zm28-79.62h-.41l-16.53,49h33.27Z"/>
  <path d="M1210.87,436.84h-49.82l-37.76-59.2h-.41v59.2h-40V282.92h59.81c30.42,0,53.49,14.49,53.49,47.36,0,21.23-11.84,39.6-33.69,43.48Zm-88-84.92h3.88c13.06,0,27.76-2.45,27.76-19.19s-14.7-19.19-27.76-19.19h-3.88Z"/>
  <path d="M1216.38,282.92h48l28.78,41.85,28.79-41.85h48l-56.75,80v73.9h-40v-73.9Z"/>
  <path d="M148,330.23l-45.6,12.41v33.62l141,22.18V137.22L171.94,126V298.29C171.94,312.79,161.65,326.52,148,330.23Z" style="fill:transparent"/>
  <path d="M102.39,342.64,148,330.23c13.66-3.71,23.95-17.44,23.95-31.94V126L102.39,115Z"/>
  <path d="M171.94,92.74V4.85L24.87,36C10.69,39,0,52.66,0,67.81v302.7l69.55-18.93V76.63Z"/>
  <path d="M250.56,105.1,171.94,92.74V126l71.49,11.24V398.44l-141-22.18V342.64l-32.84,8.94v25.48c0,15.3,11.3,29.06,25.72,31.33l181,28.46V136.43C276.27,121.13,265,107.37,250.56,105.1Z"/>
</svg>
