<svg xmlns="http://www.w3.org/2000/svg" viewBox="0 0 444 444">
  <path d="M231.86,331.38l-45.6,12.41v33.62l141,22.18V138.37l-71.48-11.24v172.31c.03,14.5-10.28,28.23-23.92,31.94Z" style="fill:none;"/>
  <path d="M186.26,343.79l45.6-12.41c13.65-3.71,23.95-17.44,23.95-31.94V127.13l-69.55-10.94v227.6Z"/>
  <path d="M255.81,93.88V6L108.73,37.13c-14.18,3-24.87,16.68-24.87,31.87V371.7l69.56-18.93V77.77l102.39,16.11Z"/>
  <path d="M334.42,106.25l-78.61-12.37v33.25l71.48,11.24V399.59l-141-22.18v-33.62l-32.84,8.94v25.48c0,15.3,11.29,29.06,25.71,31.33l181,28.46V137.58c-.02-15.3-11.32-29.07-25.74-31.33Z"/>
</svg>
